<svg width="311" height="143" viewBox="0 0 311 143" fill="none" xmlns="http://www.w3.org/2000/svg"><path d="M30.56 80.8C26.6667 80.8 23.0933 80.1067 19.84 78.72C16.5867 77.3333 13.76 75.36 11.36 72.8C8.96 70.1867 7.09333 67.12 5.76 63.6C4.48 60.08 3.84 56.2133 3.84 52C3.84 48 4.53333 44.2933 5.92 40.88C7.36 37.4133 9.33333 34.3733 11.84 31.76C14.3467 29.1467 17.2533 27.12 20.56 25.68C23.8667 24.24 27.44 23.52 31.28 23.52C34 23.52 36.64 23.9467 39.2 24.8C41.8133 25.6 44.16 26.7467 46.24 28.24C48.3733 29.68 50.1067 31.3333 51.44 33.2L45.68 39.2C44.1333 37.6533 42.56 36.3733 40.96 35.36C39.4133 34.2933 37.8133 33.4933 36.16 32.96C34.56 32.4267 32.9333 32.16 31.28 32.16C28.6667 32.16 26.2133 32.6667 23.92 33.68C21.68 34.64 19.7067 36 18 37.76C16.3467 39.52 15.04 41.6267 14.08 44.08C13.12 46.48 12.64 49.12 12.64 52C12.64 55.04 13.0933 57.8133 14 60.32C14.96 62.7733 16.2933 64.88 18 66.64C19.7067 68.4 21.7333 69.76 24.08 70.72C26.48 71.6267 29.12 72.08 32 72.08C33.76 72.08 35.4933 71.84 37.2 71.36C38.9067 70.88 40.5067 70.1867 42 69.28C43.4933 68.3733 44.8533 67.3067 46.08 66.08L50.4 73.12C49.1733 74.56 47.4933 75.8667 45.36 77.04C43.28 78.2133 40.9333 79.1467 38.32 79.84C35.76 80.48 33.1733 80.8 30.56 80.8ZM78.9369 80.8C74.8302 80.8 71.1502 79.8667 67.8969 78C64.6969 76.08 62.1635 73.4933 60.2969 70.24C58.4302 66.9333 57.4969 63.1733 57.4969 58.96C57.4969 54.7467 58.4302 51.0133 60.2969 47.76C62.1635 44.4533 64.6969 41.8667 67.8969 40C71.1502 38.08 74.8302 37.12 78.9369 37.12C82.9902 37.12 86.6169 38.08 89.8169 40C93.0702 41.8667 95.6302 44.4533 97.4969 47.76C99.3635 51.0133 100.297 54.7467 100.297 58.96C100.297 63.1733 99.3635 66.9333 97.4969 70.24C95.6302 73.4933 93.0702 76.08 89.8169 78C86.6169 79.8667 82.9902 80.8 78.9369 80.8ZM78.9369 73.28C81.4435 73.28 83.6835 72.6667 85.6569 71.44C87.6302 70.16 89.1769 68.4533 90.2969 66.32C91.4169 64.1333 91.9502 61.68 91.8969 58.96C91.9502 56.1867 91.4169 53.7333 90.2969 51.6C89.1769 49.4133 87.6302 47.7067 85.6569 46.48C83.6835 45.2533 81.4435 44.64 78.9369 44.64C76.4302 44.64 74.1635 45.28 72.1369 46.56C70.1635 47.7867 68.6169 49.4933 67.4969 51.68C66.3769 53.8133 65.8435 56.24 65.8969 58.96C65.8435 61.68 66.3769 64.1333 67.4969 66.32C68.6169 68.4533 70.1635 70.16 72.1369 71.44C74.1635 72.6667 76.4302 73.28 78.9369 73.28ZM121.864 80L104.104 38H112.984L125.784 69.44L124.264 70.16L137.944 38H146.424L127.784 80H121.864ZM172.391 80.8C168.071 80.8 164.231 79.8933 160.871 78.08C157.565 76.2133 154.951 73.68 153.031 70.48C151.165 67.28 150.231 63.6 150.231 59.44C150.231 56.1333 150.765 53.12 151.831 50.4C152.898 47.68 154.365 45.3333 156.231 43.36C158.151 41.3333 160.418 39.7867 163.031 38.72C165.698 37.6 168.578 37.04 171.671 37.04C174.391 37.04 176.925 37.5733 179.271 38.64C181.618 39.6533 183.645 41.0667 185.351 42.88C187.111 44.6933 188.445 46.8533 189.351 49.36C190.311 51.8133 190.765 54.5067 190.711 57.44L190.631 60.96H156.311L154.471 54.4H183.511L182.311 55.76V53.84C182.151 52.08 181.565 50.5067 180.551 49.12C179.538 47.7333 178.258 46.64 176.711 45.84C175.165 45.04 173.485 44.64 171.671 44.64C168.791 44.64 166.365 45.2 164.391 46.32C162.418 47.3867 160.925 48.9867 159.911 51.12C158.898 53.2 158.391 55.7867 158.391 58.88C158.391 61.8133 159.005 64.3733 160.231 66.56C161.458 68.6933 163.191 70.3467 165.431 71.52C167.671 72.6933 170.258 73.28 173.191 73.28C175.271 73.28 177.191 72.9333 178.951 72.24C180.765 71.5467 182.711 70.2933 184.791 68.48L188.951 74.32C187.671 75.6 186.098 76.72 184.231 77.68C182.418 78.64 180.471 79.4133 178.391 80C176.365 80.5333 174.365 80.8 172.391 80.8ZM199.666 80V38H207.986V51.2L207.186 48C207.773 45.9733 208.76 44.1333 210.146 42.48C211.586 40.8267 213.213 39.52 215.026 38.56C216.893 37.6 218.813 37.12 220.786 37.12C221.693 37.12 222.546 37.2 223.346 37.36C224.2 37.52 224.866 37.7067 225.346 37.92L223.186 46.88C222.546 46.6133 221.826 46.4 221.026 46.24C220.28 46.0267 219.533 45.92 218.786 45.92C217.346 45.92 215.96 46.2133 214.626 46.8C213.346 47.3333 212.2 48.1067 211.186 49.12C210.226 50.08 209.453 51.2267 208.866 52.56C208.28 53.84 207.986 55.2533 207.986 56.8V80H199.666ZM245.932 80.8C242.412 80.8 239.239 80.1867 236.412 78.96C233.585 77.7333 231.239 75.92 229.372 73.52L234.972 68.72C236.572 70.5867 238.305 71.9467 240.172 72.8C242.092 73.6 244.252 74 246.652 74C247.612 74 248.492 73.8933 249.292 73.68C250.145 73.4133 250.865 73.04 251.452 72.56C252.092 72.08 252.572 71.52 252.892 70.88C253.212 70.1867 253.372 69.44 253.372 68.64C253.372 67.2533 252.865 66.1333 251.852 65.28C251.319 64.9067 250.465 64.5067 249.292 64.08C248.172 63.6 246.705 63.12 244.892 62.64C241.799 61.84 239.265 60.9333 237.292 59.92C235.319 58.9067 233.799 57.76 232.732 56.48C231.932 55.4667 231.345 54.3733 230.972 53.2C230.599 51.9733 230.412 50.64 230.412 49.2C230.412 47.44 230.785 45.84 231.532 44.4C232.332 42.9067 233.399 41.6267 234.732 40.56C236.119 39.44 237.719 38.5867 239.532 38C241.399 37.4133 243.372 37.12 245.452 37.12C247.425 37.12 249.372 37.3867 251.292 37.92C253.265 38.4533 255.079 39.2267 256.732 40.24C258.385 41.2533 259.772 42.4533 260.892 43.84L256.172 49.04C255.159 48.0267 254.039 47.1467 252.812 46.4C251.639 45.6 250.439 44.9867 249.212 44.56C247.985 44.1333 246.865 43.92 245.852 43.92C244.732 43.92 243.719 44.0267 242.812 44.24C241.905 44.4533 241.132 44.7733 240.492 45.2C239.905 45.6267 239.452 46.16 239.132 46.8C238.812 47.44 238.652 48.16 238.652 48.96C238.705 49.6533 238.865 50.32 239.132 50.96C239.452 51.5467 239.879 52.0533 240.412 52.48C240.999 52.9067 241.879 53.36 243.052 53.84C244.225 54.32 245.719 54.7733 247.532 55.2C250.199 55.8933 252.385 56.6667 254.092 57.52C255.852 58.32 257.239 59.2533 258.252 60.32C259.319 61.3333 260.065 62.5067 260.492 63.84C260.919 65.1733 261.132 66.6667 261.132 68.32C261.132 70.72 260.439 72.88 259.052 74.8C257.719 76.6667 255.905 78.1333 253.612 79.2C251.319 80.2667 248.759 80.8 245.932 80.8ZM277.253 98.4L285.733 78.8L285.813 85.36L264.853 38H274.453L287.573 68.88C287.84 69.4133 288.16 70.24 288.533 71.36C288.906 72.4267 289.226 73.4933 289.493 74.56L287.413 75.04C287.84 73.92 288.24 72.8 288.613 71.68C289.04 70.56 289.44 69.44 289.813 68.32L300.773 38H310.533L293.253 80L286.133 98.4H277.253Z" fill="white"/><line x1="246.5" y1="29.5" x2="246.5" y2="89.5" stroke="white" stroke-width="5" stroke-linecap="round"/><path fill-rule="evenodd" clip-rule="evenodd" d="M58.7813 59.8123C58.7813 47.9785 68.0574 38.3853 79.5 38.3853C90.9427 38.3853 100.219 47.9785 100.219 59.8123C100.219 71.6462 90.9427 81.2394 79.5 81.2394C68.0574 81.2394 58.7813 71.6462 58.7813 59.8123ZM79.5 45.9478C72.0959 45.9478 66.0938 52.1551 66.0938 59.8123C66.0938 67.4695 72.0959 73.6769 79.5 73.6769C86.9041 73.6769 92.9063 67.4695 92.9063 59.8123C92.9063 52.1551 86.9041 45.9478 79.5 45.9478Z" fill="white"/><path fill-rule="evenodd" clip-rule="evenodd" d="M60 96.3644C53.9421 96.3644 49.0313 101.443 49.0313 107.708V113.699C49.0313 113.79 49.0952 113.868 49.1822 113.883C69.2612 117.273 89.7389 117.273 109.818 113.883C109.905 113.868 109.969 113.79 109.969 113.699V107.708C109.969 101.443 105.058 96.3644 99 96.3644H97.3383C97.2098 96.3644 97.0821 96.3854 96.96 96.4267L92.7406 97.8515C84.1371 100.757 74.863 100.757 66.2594 97.8515L62.04 96.4267C61.9179 96.3854 61.7902 96.3644 61.6617 96.3644H60ZM41.7188 107.708C41.7188 97.2665 49.9035 88.8019 60 88.8019H61.6617C62.5611 88.8019 63.4549 88.949 64.3099 89.2377L68.5292 90.6626C75.6579 93.0699 83.3421 93.0699 90.4708 90.6626L94.6902 89.2377C95.5451 88.949 96.4389 88.8019 97.3383 88.8019H99C109.096 88.8019 117.281 97.2665 117.281 107.708V113.699C117.281 117.497 114.62 120.735 110.996 121.346C90.1368 124.868 68.8632 124.868 48.004 121.346C44.3799 120.735 41.7188 117.497 41.7188 113.699V107.708Z" fill="white"/></svg>